<svg width="24" height="24" viewBox="0 0 24 24" fill="none" xmlns="http://www.w3.org/2000/svg">
<path d="M24 12.32V22.6667C24 23.403 23.403 24 22.6667 24H17.3333C16.597 24 16 23.403 16 22.6667V15.3333C16 14.9651 15.7015 14.6667 15.3333 14.6667H8.66667C8.29848 14.6667 8 14.9651 8 15.3333V22.6667C8 23.403 7.40305 24 6.66667 24H1.33333C0.596954 24 0 23.403 0 22.6667V12.32C0.000933613 11.2595 0.422974 10.2428 1.17333 9.49333L10.28 0.386667C10.5283 0.140341 10.8635 0.00147283 11.2133 0H12.7867C13.1365 0.00147283 13.4717 0.140341 13.72 0.386667L22.8267 9.49333C23.577 10.2428 23.9991 11.2595 24 12.32Z" fill="white"/>
</svg>
