<svg width="20" height="20" viewBox="0 0 20 20" fill="none" xmlns="http://www.w3.org/2000/svg">
<path d="M14.4444 0H5.55556C2.48731 0 0 2.48731 0 5.55556V14.4444C0 17.5127 2.48731 20 5.55556 20H14.4444C17.5127 20 20 17.5127 20 14.4444V5.55556C20 2.48731 17.5127 0 14.4444 0ZM18.0556 14.4444C18.0495 16.4363 16.4363 18.0495 14.4444 18.0556H5.55556C3.56373 18.0495 1.95055 16.4363 1.94444 14.4444V5.55556C1.95055 3.56373 3.56373 1.95055 5.55556 1.94444H14.4444C16.4363 1.95055 18.0495 3.56373 18.0556 5.55556V14.4444ZM16.3889 4.72222C16.3889 5.33587 15.8914 5.83333 15.2778 5.83333C14.6641 5.83333 14.1667 5.33587 14.1667 4.72222C14.1667 4.10857 14.6641 3.61111 15.2778 3.61111C15.8914 3.61111 16.3889 4.10857 16.3889 4.72222ZM10 5C7.23858 5 5 7.23858 5 10C5 12.7614 7.23858 15 10 15C12.7614 15 15 12.7614 15 10C15.003 8.67301 14.4771 7.39952 13.5388 6.4612C12.6005 5.52288 11.327 4.99704 10 5ZM10 13.0556C8.31246 13.0556 6.94444 11.6875 6.94444 10C6.94444 8.31246 8.31246 6.94444 10 6.94444C11.6875 6.94444 13.0556 8.31246 13.0556 10C13.0556 11.6875 11.6875 13.0556 10 13.0556Z" fill="white"/>
</svg>
