<svg width="24" height="24" viewBox="0 0 24 24" fill="none" xmlns="http://www.w3.org/2000/svg">
<path d="M18.6649 24C16.4601 23.9981 14.2897 23.4532 12.3455 22.4135L11.7455 22.0802C7.60027 19.8515 4.20185 16.4531 1.97314 12.3078L1.63984 11.7079C0.573044 9.75253 0.00950271 7.56251 8.38329e-07 5.33513V4.44188C-0.000562281 3.73123 0.282588 3.04975 0.786592 2.54873L3.03971 0.295618C3.25852 0.075103 3.5674 -0.031184 3.87557 0.00799064C4.18375 0.0471653 4.45621 0.227351 4.61289 0.495599L7.6126 5.64177C7.91595 6.16557 7.82835 6.82799 7.39929 7.25495L4.87953 9.7747C4.67028 9.98166 4.62151 10.3014 4.75954 10.5613L5.22616 11.4412C6.90206 14.5455 9.45144 17.0903 12.5588 18.7605L13.4387 19.2405C13.6986 19.3785 14.0183 19.3297 14.2253 19.1205L16.7451 16.6007C17.172 16.1716 17.8344 16.0841 18.3582 16.3874L23.5044 19.3871C23.7726 19.5438 23.9528 19.8163 23.992 20.1244C24.0312 20.4326 23.9249 20.7415 23.7044 20.9603L21.4513 23.2134C20.9503 23.7174 20.2688 24.0006 19.5581 24H18.6649Z" fill="white"/>
</svg>
